<svg xmlns="http://www.w3.org/2000/svg" width="278" height="278" viewBox="0 0 278 278">
  <g id="Caminho_14" data-name="Caminho 14" fill="#a6013b">
    <path d="M 139 277.5 C 129.6026458740234 277.5 120.2112884521484 276.5532836914062 111.0868911743164 274.6861877441406 C 102.1946411132812 272.8665466308594 93.44792938232422 270.1514282226562 85.08971405029297 266.6161804199219 C 76.88311004638672 263.1451110839844 68.96781921386719 258.8488159179688 61.56367874145508 253.8466796875 C 54.22975158691406 248.8919677734375 47.33324813842773 243.2018280029297 41.06571578979492 236.9342803955078 C 34.79817962646484 230.666748046875 29.10803604125977 223.7702484130859 24.15332221984863 216.4363250732422 C 19.15117835998535 209.0321807861328 14.85489273071289 201.1168975830078 11.38382148742676 192.9102783203125 C 7.848571300506592 184.5520782470703 5.133464336395264 175.8053588867188 3.313821315765381 166.9131011962891 C 1.446714282035828 157.7887115478516 0.5 148.3973541259766 0.5 139 C 0.5 129.6026458740234 1.446714282035828 120.2112884521484 3.313821315765381 111.0868911743164 C 5.133464336395264 102.1946411132812 7.848571300506592 93.44792938232422 11.38382148742676 85.08971405029297 C 14.85489273071289 76.88311004638672 19.15117835998535 68.96781921386719 24.15332221984863 61.56367874145508 C 29.10803604125977 54.22975158691406 34.79817962646484 47.33324813842773 41.06571578979492 41.06571578979492 C 47.33324813842773 34.79817962646484 54.22975158691406 29.10803604125977 61.56367874145508 24.15332221984863 C 68.96781921386719 19.15117835998535 76.88311004638672 14.85489273071289 85.08971405029297 11.38382148742676 C 93.44792938232422 7.848571300506592 102.1946411132812 5.133464336395264 111.0868911743164 3.313821315765381 C 120.2112884521484 1.446714282035828 129.6026458740234 0.5 139 0.5 C 148.3973541259766 0.5 157.7887115478516 1.446714282035828 166.9131011962891 3.313821315765381 C 175.8053588867188 5.133464336395264 184.5520782470703 7.848571300506592 192.9102783203125 11.38382148742676 C 201.1168975830078 14.85489273071289 209.0321807861328 19.15117835998535 216.4363250732422 24.15332221984863 C 223.7702484130859 29.10803604125977 230.666748046875 34.79817962646484 236.9342803955078 41.06571578979492 C 243.2018280029297 47.33324813842773 248.8919677734375 54.22975158691406 253.8466796875 61.56367874145508 C 258.8488159179688 68.96781921386719 263.1451110839844 76.88311004638672 266.6161804199219 85.08971405029297 C 270.1514282226562 93.44792938232422 272.8665466308594 102.1946411132812 274.6861877441406 111.0868911743164 C 276.5532836914062 120.2112884521484 277.5 129.6026458740234 277.5 139 C 277.5 148.3973541259766 276.5532836914062 157.7887115478516 274.6861877441406 166.9131011962891 C 272.8665466308594 175.8053588867188 270.1514282226562 184.5520782470703 266.6161804199219 192.9102783203125 C 263.1451110839844 201.1168975830078 258.8488159179688 209.0321807861328 253.8466796875 216.4363250732422 C 248.8919677734375 223.7702484130859 243.2018280029297 230.666748046875 236.9342803955078 236.9342803955078 C 230.666748046875 243.2018280029297 223.7702484130859 248.8919677734375 216.4363250732422 253.8466796875 C 209.0321807861328 258.8488159179688 201.1168975830078 263.1451110839844 192.9102783203125 266.6161804199219 C 184.5520782470703 270.1514282226562 175.8053588867188 272.8665466308594 166.9131011962891 274.6861877441406 C 157.7887115478516 276.5532836914062 148.3973541259766 277.5 139 277.5 Z" stroke="none"/>
    <path d="M 139 1 C 129.6362152099609 1 120.2786102294922 1.94329833984375 111.1871490478516 3.803680419921875 C 102.3272094726562 5.616668701171875 93.61228942871094 8.32196044921875 85.28450012207031 11.84432983398438 C 77.10763549804688 15.30282592773438 69.22096252441406 19.58355712890625 61.84356689453125 24.56764221191406 C 54.53604125976562 29.50453186035156 47.66429138183594 35.17425537109375 41.41925048828125 41.41925048828125 C 35.17425537109375 47.66429138183594 29.50453186035156 54.53604125976562 24.56764221191406 61.84356689453125 C 19.58355712890625 69.22096252441406 15.30282592773438 77.10763549804688 11.84432983398438 85.28450012207031 C 8.32196044921875 93.61228942871094 5.616668701171875 102.3272094726562 3.803680419921875 111.1871490478516 C 1.94329833984375 120.2786102294922 1 129.6362152099609 1 139 C 1 148.3637847900391 1.94329833984375 157.7213897705078 3.803680419921875 166.8128662109375 C 5.616668701171875 175.6727905273438 8.32196044921875 184.3877105712891 11.84432983398438 192.7154998779297 C 15.30282592773438 200.8923645019531 19.58355712890625 208.7790374755859 24.56764221191406 216.1564331054688 C 29.50453186035156 223.4639587402344 35.17425537109375 230.3357086181641 41.41925048828125 236.5807495117188 C 47.66429138183594 242.8257446289062 54.53604125976562 248.4954681396484 61.84356689453125 253.4323577880859 C 69.22096252441406 258.4164428710938 77.10763549804688 262.6971740722656 85.28450012207031 266.1556701660156 C 93.61228942871094 269.6780395507812 102.3272094726562 272.3833312988281 111.1871490478516 274.1963195800781 C 120.2786102294922 276.0567016601562 129.6362152099609 277 139 277 C 148.3637847900391 277 157.7213897705078 276.0567016601562 166.8128662109375 274.1963195800781 C 175.6727905273438 272.3833312988281 184.3877105712891 269.6780395507812 192.7154998779297 266.1556701660156 C 200.8923645019531 262.6971740722656 208.7790374755859 258.4164428710938 216.1564331054688 253.4323577880859 C 223.4639587402344 248.4954681396484 230.3357086181641 242.8257446289062 236.5807495117188 236.5807495117188 C 242.8257446289062 230.3357086181641 248.4954681396484 223.4639587402344 253.4323577880859 216.1564331054688 C 258.4164428710938 208.7790374755859 262.6971740722656 200.8923645019531 266.1556701660156 192.7154998779297 C 269.6780395507812 184.3877105712891 272.3833312988281 175.6727905273438 274.1963195800781 166.8128662109375 C 276.0567016601562 157.7213897705078 277 148.3637847900391 277 139 C 277 129.6362152099609 276.0567016601562 120.2786102294922 274.1963195800781 111.1871490478516 C 272.3833312988281 102.3272094726562 269.6780395507812 93.61228942871094 266.1556701660156 85.28450012207031 C 262.6971740722656 77.10763549804688 258.4164428710938 69.22096252441406 253.4323577880859 61.84356689453125 C 248.4954681396484 54.53604125976562 242.8257446289062 47.66429138183594 236.5807495117188 41.41925048828125 C 230.3357086181641 35.17425537109375 223.4639587402344 29.50453186035156 216.1564331054688 24.56764221191406 C 208.7790374755859 19.58355712890625 200.8923645019531 15.30282592773438 192.7154998779297 11.84432983398438 C 184.3877105712891 8.32196044921875 175.6727905273438 5.616668701171875 166.8128662109375 3.803680419921875 C 157.7213897705078 1.94329833984375 148.3637847900391 1 139 1 M 139 0 C 215.767578125 0 278 62.232421875 278 139 C 278 215.767578125 215.767578125 278 139 278 C 62.232421875 278 0 215.767578125 0 139 C 0 62.232421875 62.232421875 0 139 0 Z" stroke="none" fill="#fff"/>
  </g>
</svg>
