<svg xmlns="http://www.w3.org/2000/svg" xmlns:xlink="http://www.w3.org/1999/xlink" width="24" height="19" viewBox="0 0 24 19">
  <defs>
    <clipPath id="clip-path">
      <path id="icon_twitter" data-name="icon / twitter" d="M8.208,19A16.37,16.37,0,0,1,.525,16.994a.952.952,0,0,1-.5-1.051,1.08,1.08,0,0,1,1-.669,11.929,11.929,0,0,0,4.89-.955,9.062,9.062,0,0,1-4.79-7.643,11.465,11.465,0,0,1,1-5.159.86.86,0,0,1,.8-.573.981.981,0,0,1,.9.382A9.718,9.718,0,0,0,11,5.243a4.826,4.826,0,0,1,2-3.917A5.461,5.461,0,0,1,16.576,0a5.521,5.521,0,0,1,3.607,1.326,10.179,10.179,0,0,0,2.3-1.147,1.119,1.119,0,0,1,1.1,0,.888.888,0,0,1,.4.955,7.79,7.79,0,0,1-2,3.63v.478c0,5.318-2.437,9.671-6.685,11.942A14.2,14.2,0,0,1,8.208,19ZM3.418,3.906c-.5,2.012-1.028,6.971,4.99,9.553a.838.838,0,0,1,.6.764.827.827,0,0,1-.5.86,11.959,11.959,0,0,1-3.592,1.625,14.522,14.522,0,0,0,3.273.382,12.575,12.575,0,0,0,6.106-1.528A11.374,11.374,0,0,0,19.983,5.243a1.173,1.173,0,0,0-.1-.574,1.292,1.292,0,0,1,.3-.859c.1-.144.2-.266.3-.384s.2-.238.3-.38a1.488,1.488,0,0,1-.351.1,1.5,1.5,0,0,0-.348.095.788.788,0,0,1-.24.036,1.119,1.119,0,0,1-.758-.322,3.545,3.545,0,0,0-2.619-1.119,3.4,3.4,0,0,0-2.271.832A3.353,3.353,0,0,0,13,5.243V6.2a1.059,1.059,0,0,1-1,.956c-.117,0-.235.005-.352.005A11.984,11.984,0,0,1,3.418,3.906Z" transform="translate(0 0)" fill="#fff"/>
    </clipPath>
  </defs>
</svg>
