<svg id="Grupo_75" data-name="Grupo 75" xmlns="http://www.w3.org/2000/svg" xmlns:xlink="http://www.w3.org/1999/xlink" width="32" height="32" viewBox="0 0 32 32">
  <defs>
    <clipPath id="clip-path">
      <path id="icon_phone" data-name="icon / phone" d="M27.617,32h-.439a29.275,29.275,0,0,1-13.3-4.675,30.572,30.572,0,0,1-9.206-9.206A30.988,30.988,0,0,1,0,4.821,5.024,5.024,0,0,1,1.022,1.608,4.53,4.53,0,0,1,3.946,0H8.767a4.419,4.419,0,0,1,4.384,3.8,16.046,16.046,0,0,0,.876,3.8A4.59,4.59,0,0,1,13,12.274L11.982,13.3A22.747,22.747,0,0,0,18.7,20.019L19.725,19a4.869,4.869,0,0,1,3.213-1.28,4.273,4.273,0,0,1,1.463.258,16.064,16.064,0,0,0,3.8.877A4.416,4.416,0,0,1,32,23.233v4.384a4.815,4.815,0,0,1-1.314,3.069A3.993,3.993,0,0,1,27.617,32ZM4.384,2.922a1.84,1.84,0,0,0-1.169.585,2.114,2.114,0,0,0-.293,1.022A27.656,27.656,0,0,0,7.159,16.512a26.527,26.527,0,0,0,8.33,8.328A27.643,27.643,0,0,0,27.47,29.078a1.428,1.428,0,0,0,1.169-.439,1.323,1.323,0,0,0,.439-1.022V23.233a1.582,1.582,0,0,0-1.169-1.461A24.388,24.388,0,0,1,23.526,20.6a1.37,1.37,0,0,0-.615-.152,1.4,1.4,0,0,0-.993.444l-1.9,1.9a1.188,1.188,0,0,1-.984.485,1.743,1.743,0,0,1-.77-.192,24.056,24.056,0,0,1-9.351-9.352,1.555,1.555,0,0,1,.292-1.753l1.9-1.754A2.025,2.025,0,0,0,11.4,8.62a14.925,14.925,0,0,1-1.169-4.383A1.558,1.558,0,0,0,8.767,2.922Z" transform="translate(0 0)" fill="#fff"/>
    </clipPath>
  </defs>
  <path id="icon_phone-2" data-name="icon / phone" d="M27.617,32h-.439a29.275,29.275,0,0,1-13.3-4.675,30.572,30.572,0,0,1-9.206-9.206A30.988,30.988,0,0,1,0,4.821,5.024,5.024,0,0,1,1.022,1.608,4.53,4.53,0,0,1,3.946,0H8.767a4.419,4.419,0,0,1,4.384,3.8,16.046,16.046,0,0,0,.876,3.8A4.59,4.59,0,0,1,13,12.274L11.982,13.3A22.747,22.747,0,0,0,18.7,20.019L19.725,19a4.869,4.869,0,0,1,3.213-1.28,4.273,4.273,0,0,1,1.463.258,16.064,16.064,0,0,0,3.8.877A4.416,4.416,0,0,1,32,23.233v4.384a4.815,4.815,0,0,1-1.314,3.069A3.993,3.993,0,0,1,27.617,32ZM4.384,2.922a1.84,1.84,0,0,0-1.169.585,2.114,2.114,0,0,0-.293,1.022A27.656,27.656,0,0,0,7.159,16.512a26.527,26.527,0,0,0,8.33,8.328A27.643,27.643,0,0,0,27.47,29.078a1.428,1.428,0,0,0,1.169-.439,1.323,1.323,0,0,0,.439-1.022V23.233a1.582,1.582,0,0,0-1.169-1.461A24.388,24.388,0,0,1,23.526,20.6a1.37,1.37,0,0,0-.615-.152,1.4,1.4,0,0,0-.993.444l-1.9,1.9a1.188,1.188,0,0,1-.984.485,1.743,1.743,0,0,1-.77-.192,24.056,24.056,0,0,1-9.351-9.352,1.555,1.555,0,0,1,.292-1.753l1.9-1.754A2.025,2.025,0,0,0,11.4,8.62a14.925,14.925,0,0,1-1.169-4.383A1.558,1.558,0,0,0,8.767,2.922Z" transform="translate(0 0)" fill="#fff"/>
</svg>
