<svg xmlns="http://www.w3.org/2000/svg" xmlns:xlink="http://www.w3.org/1999/xlink" width="32" height="26.182" viewBox="0 0 32 26.182">
  <defs>
    <clipPath id="clip-path">
      <path id="icon_mail" data-name="icon / mail" d="M27.637,26.182H4.363A4.268,4.268,0,0,1,0,21.819V4.363A4.268,4.268,0,0,1,4.363,0H27.637A4.268,4.268,0,0,1,32,4.363V21.819A4.268,4.268,0,0,1,27.637,26.182ZM2.909,7.127V21.819a1.377,1.377,0,0,0,1.454,1.454H27.637a1.377,1.377,0,0,0,1.454-1.454V7.127L16.873,15.709A2.076,2.076,0,0,1,16,16a2.077,2.077,0,0,1-.872-.291ZM4.363,2.909a1.4,1.4,0,0,0-1.309.873L16,12.8,28.946,3.782a1.4,1.4,0,0,0-1.309-.873Z" transform="translate(0)" fill="#fff"/>
    </clipPath>
  </defs>
  <g id="Grupo_218" data-name="Grupo 218" transform="translate(-1 -3)">
    <path id="icon_mail-2" data-name="icon / mail" d="M27.637,26.182H4.363A4.268,4.268,0,0,1,0,21.819V4.363A4.268,4.268,0,0,1,4.363,0H27.637A4.268,4.268,0,0,1,32,4.363V21.819A4.268,4.268,0,0,1,27.637,26.182ZM2.909,7.127V21.819a1.377,1.377,0,0,0,1.454,1.454H27.637a1.377,1.377,0,0,0,1.454-1.454V7.127L16.873,15.709A2.076,2.076,0,0,1,16,16a2.077,2.077,0,0,1-.872-.291ZM4.363,2.909a1.4,1.4,0,0,0-1.309.873L16,12.8,28.946,3.782a1.4,1.4,0,0,0-1.309-.873Z" transform="translate(1 3)" fill="#fff"/>
  </g>
</svg>
