<svg xmlns="http://www.w3.org/2000/svg" xmlns:xlink="http://www.w3.org/1999/xlink" width="22" height="21" viewBox="0 0 22 21">
  <defs>
    <clipPath id="clip-path">
      <path id="icon_instagram" data-name="icon / instagram" d="M16,21H6a5.875,5.875,0,0,1-6-5.727V5.728A5.875,5.875,0,0,1,6,0H16a5.875,5.875,0,0,1,6,5.728v9.546A5.875,5.875,0,0,1,16,21ZM6,1.909A3.917,3.917,0,0,0,2,5.728v9.546a3.917,3.917,0,0,0,4,3.818H16a3.916,3.916,0,0,0,4-3.818V5.728a3.917,3.917,0,0,0-4-3.819Zm5,13.364a5.014,5.014,0,0,1-3.2-1.157,4.89,4.89,0,0,1-1.7-2.947,4.609,4.609,0,0,1,.937-3.544,4.97,4.97,0,0,1,3.262-1.9,3.97,3.97,0,0,1,1.5,0,4.582,4.582,0,0,1,4.1,4.009,4.519,4.519,0,0,1-.9,3.532,5.029,5.029,0,0,1-3.3,1.91A1.78,1.78,0,0,1,11,15.273Zm-.4-7.637A2.944,2.944,0,0,0,8.626,8.773,2.649,2.649,0,0,0,8.1,10.882a2.982,2.982,0,0,0,3.022,2.408,3.2,3.2,0,0,0,.379-.023,3.225,3.225,0,0,0,2-1.145,2.545,2.545,0,0,0,.4-2.1,2.912,2.912,0,0,0-2.5-2.387h-.8ZM16.5,6.2a1.1,1.1,0,0,1-.7-.286,1,1,0,0,1-.3-.668.556.556,0,0,1,.1-.381c0-.1.107-.2.2-.287a1,1,0,0,1,1.4,0c.1.094.2.191.2.287a.331.331,0,0,0,.037.125.6.6,0,0,1,.063.256.846.846,0,0,1-.3.668A1.1,1.1,0,0,1,16.5,6.2Z" transform="translate(0 0)" fill="#fff"/>
    </clipPath>
  </defs>
</svg>
