<svg xmlns="http://www.w3.org/2000/svg" width="28.595" height="50.561" viewBox="0 0 28.595 50.561">
  <path id="Icon_material-attach-money" data-name="Icon material-attach-money" d="M24.873,26.69c-6.376-1.657-8.427-3.371-8.427-6.039,0-3.062,2.837-5.2,7.584-5.2,5,0,6.854,2.388,7.022,5.9H37.26a11.2,11.2,0,0,0-9.017-10.7V4.5H19.817v6.067c-5.449,1.18-9.831,4.719-9.831,10.14,0,6.489,5.365,9.719,13.2,11.6,7.022,1.685,8.427,4.157,8.427,6.769,0,1.938-1.376,5.028-7.584,5.028-5.786,0-8.062-2.584-8.371-5.9H9.48c.337,6.152,4.944,9.607,10.337,10.758v6.1h8.427V49.021c5.477-1.039,9.831-4.213,9.831-9.972C38.075,31.072,31.249,28.348,24.873,26.69Z" transform="translate(-9.48 -4.5)" fill="#fff"/>
</svg>
