<svg xmlns="http://www.w3.org/2000/svg" width="13.458" height="17.478" viewBox="0 0 13.458 17.478">
  <path id="Icon_simple-readthedocs" data-name="Icon simple-readthedocs" d="M4.139,17.477l.484-.1c.151-.032.3-.062.451-.092.232-.045.464-.09.7-.133.175-.033.35-.062.525-.094l.04-.011c.182-.032.363-.066.544-.087l.884-.13V0H7.731C7.272,0,6.816.01,6.359.025,5.857.038,5.344.068,4.841.1,4.623.116,4.4.135,4.187.152H4.154v17.32ZM8.619.01V16.717c.627-.073,1.253-.133,1.88-.179a44.659,44.659,0,0,1,4.641-.11q1.232.037,2.457.14V1.094Q16.5.844,15.392.652C13.959.4,12.512.229,11.061.119Q9.844.031,8.62.011h0Zm7.838,10.776-.033,0-.409-.044c-1.019-.106-2.043-.176-3.064-.212s-2.05-.022-3.075.012H9.843a.282.282,0,0,1-.1-.012.432.432,0,0,1-.194-.109.423.423,0,0,1-.114-.36.46.46,0,0,1,.039-.121.358.358,0,0,1,.076-.1.406.406,0,0,1,.1-.076.648.648,0,0,1,.131-.044h.066c.142,0,.285-.012.415-.012,1.016-.021,2.019-.021,3.036.022,1.048.044,2.086.12,3.123.24l.11.011c.032.012.065.012.1.022a.481.481,0,0,1,.186.132.473.473,0,0,1,.076.119.3.3,0,0,1,.032.131.411.411,0,0,1-.119.328.623.623,0,0,1-.1.076.424.424,0,0,1-.121.044.111.111,0,0,1-.065.012h-.034l-.035-.058Zm.025-1.974a.338.338,0,0,1-.066,0l-.4-.052c-1.016-.13-2.042-.218-3.057-.261s-2.043-.066-3.069-.044l-.033-.012c-.033-.011-.066-.011-.1-.021A.414.414,0,0,1,9.57,8.3.555.555,0,0,1,9.5,8.189a.431.431,0,0,1,.01-.382A.413.413,0,0,1,9.591,7.7.238.238,0,0,1,9.7,7.622a.311.311,0,0,1,.131-.044L9.9,7.566l.426-.011c1.017-.012,2.02.011,3.024.066,1.048.055,2.086.153,3.123.284l.109.012.066.01a.377.377,0,0,1,.2.121.409.409,0,0,1,.12.327.223.223,0,0,1-.033.12,1.03,1.03,0,0,1-.066.109.39.39,0,0,1-.1.087.42.42,0,0,1-.119.044l-.066.01h-.031l-.066.066Zm0-1.974a.338.338,0,0,1-.066,0l-.4-.058c-1.016-.138-2.031-.243-3.057-.312s-2.043-.1-3.069-.094H9.853l-.066-.012a.533.533,0,0,1-.119-.05.458.458,0,0,1-.208-.319.5.5,0,0,1,.012-.131.445.445,0,0,1,.043-.124.468.468,0,0,1,.088-.1.431.431,0,0,1,.208-.109.407.407,0,0,1,.1-.011h.414c1.048.007,2.1.047,3.134.125,1.016.076,2.02.189,3.024.333l.109.015A.242.242,0,0,1,16.657,6a.429.429,0,0,1,.12.058.262.262,0,0,1,.1.09,1.3,1.3,0,0,1,.066.115.428.428,0,0,1-.021.349.388.388,0,0,1-.076.106.4.4,0,0,1-.2.109.167.167,0,0,1-.066.01l-.032,0h-.066Zm0-1.975a.291.291,0,0,1-.066-.005l-.4-.066C15,4.628,13.981,4.507,12.955,4.43s-2.043-.13-3.069-.152H9.853l-.076-.01a.462.462,0,0,1-.12-.054.453.453,0,0,1-.1-.088.891.891,0,0,1-.068-.109.656.656,0,0,1-.032-.132.455.455,0,0,1,.132-.36.429.429,0,0,1,.2-.109.3.3,0,0,1,.1-.011c.138,0,.277,0,.415.006,1.046.025,2.091.082,3.134.179,1.01.087,2.017.218,3.019.382l.1.012a.144.144,0,0,1,.066.01.488.488,0,0,1,.12.055.38.38,0,0,1,.091.087.46.46,0,0,1,.076.339.541.541,0,0,1-.044.121.375.375,0,0,1-.087.1.437.437,0,0,1-.2.109h-.1l0,.06ZM5.071,4.492a.465.465,0,0,1-.2-.046.442.442,0,0,1-.24-.368.448.448,0,0,1,.022-.12.332.332,0,0,1,.066-.138A.483.483,0,0,1,4.841,3.7a.529.529,0,0,1,.176-.067l.35-.032c.48-.042.95-.076,1.419-.1h.044a.4.4,0,0,1,.2.052.43.43,0,0,1,.229.378.456.456,0,0,1-.021.117.345.345,0,0,1-.066.138.4.4,0,0,1-.12.12.491.491,0,0,1-.175.066c-.076.011-.152.011-.229.022-.1.011-.208.011-.318.023l-.851.064L5.268,4.5a.589.589,0,0,1-.143.011l-.055-.018Zm11.4-1.6L16.4,2.882,16,2.809c-1.016-.17-2.043-.309-3.069-.411s-2.042-.164-3.069-.2H9.831l-.066-.013a.465.465,0,0,1-.12-.052.539.539,0,0,1-.1-.088.411.411,0,0,1-.087-.368.743.743,0,0,1,.054-.131A.433.433,0,0,1,9.6,1.439a.457.457,0,0,1,.208-.109.3.3,0,0,1,.1-.011l.425.011c1.016.044,2.02.109,3.025.219,1.048.108,2.086.261,3.123.437L16.59,2a.11.11,0,0,1,.066.012.422.422,0,0,1,.12.054.44.44,0,0,1,.174.307.264.264,0,0,1-.011.132.228.228,0,0,1-.043.119.75.75,0,0,1-.076.1.369.369,0,0,1-.208.1l-.063.01h-.033l-.044.063ZM5.058,2.329a.428.428,0,0,1-.182-.041.419.419,0,0,1-.217-.232.394.394,0,0,1-.028-.114.43.43,0,0,1,.186-.4.436.436,0,0,1,.189-.072c.115-.01.229-.01.344-.021.473-.033.947-.055,1.419-.076H6.8a.539.539,0,0,1,.186.055.456.456,0,0,1,.218.382.416.416,0,0,1-.022.121.628.628,0,0,1-.076.142.335.335,0,0,1-.133.109.368.368,0,0,1-.186.055,1.806,1.806,0,0,1-.24.01l-.327.023c-.295.021-.579.033-.864.054l-.218.012A.665.665,0,0,1,5,2.348Z" transform="translate(-4.138 0.001)" fill="#fff"/>
</svg>
