<svg id="instagram" xmlns="http://www.w3.org/2000/svg" xmlns:xlink="http://www.w3.org/1999/xlink" width="22" height="22" viewBox="0 0 22 22">
  <defs>
    <clipPath id="clip-path">
      <path id="icon_instagram" data-name="icon / instagram" d="M16,22H6a6.007,6.007,0,0,1-6-6V6A6.007,6.007,0,0,1,6,0H16a6.007,6.007,0,0,1,6,6V16A6.006,6.006,0,0,1,16,22ZM6,2A4.005,4.005,0,0,0,2,6V16a4,4,0,0,0,4,4H16a4,4,0,0,0,4-4V6a4,4,0,0,0-4-4Zm5,14a4.877,4.877,0,0,1-3.2-1.213A5.181,5.181,0,0,1,6.1,11.7a5,5,0,0,1,.937-3.713A4.929,4.929,0,0,1,10.3,6a3.793,3.793,0,0,1,1.5,0,4.691,4.691,0,0,1,4.1,4.2,4.9,4.9,0,0,1-.9,3.7,4.986,4.986,0,0,1-3.3,2A1.706,1.706,0,0,1,11,16Zm-.4-8A2.918,2.918,0,0,0,8.626,9.191,2.875,2.875,0,0,0,8.1,11.4a3.019,3.019,0,0,0,3.021,2.523A3.054,3.054,0,0,0,11.5,13.9a3.193,3.193,0,0,0,2-1.2,2.769,2.769,0,0,0,.4-2.2A2.976,2.976,0,0,0,11.4,8h-.8Zm5.9-1.5a1.026,1.026,0,0,1-1-1,.6.6,0,0,1,.1-.4c0-.1.107-.207.2-.3a.967.967,0,0,1,1.4,0c.1.1.2.2.2.3a.359.359,0,0,0,.037.131A.657.657,0,0,1,17.5,5.5a.905.905,0,0,1-.3.7A1.076,1.076,0,0,1,16.5,6.5Z" transform="translate(1 1)" fill="#222b45"/>
    </clipPath>
  </defs>
  <g id="Grupo_109" data-name="Grupo 109" transform="translate(-1 -1)">
    <path id="icon_instagram-2" data-name="icon / instagram" d="M16,22H6a6.007,6.007,0,0,1-6-6V6A6.007,6.007,0,0,1,6,0H16a6.007,6.007,0,0,1,6,6V16A6.006,6.006,0,0,1,16,22ZM6,2A4.005,4.005,0,0,0,2,6V16a4,4,0,0,0,4,4H16a4,4,0,0,0,4-4V6a4,4,0,0,0-4-4Zm5,14a4.877,4.877,0,0,1-3.2-1.213A5.181,5.181,0,0,1,6.1,11.7a5,5,0,0,1,.937-3.713A4.929,4.929,0,0,1,10.3,6a3.793,3.793,0,0,1,1.5,0,4.691,4.691,0,0,1,4.1,4.2,4.9,4.9,0,0,1-.9,3.7,4.986,4.986,0,0,1-3.3,2A1.706,1.706,0,0,1,11,16Zm-.4-8A2.918,2.918,0,0,0,8.626,9.191,2.875,2.875,0,0,0,8.1,11.4a3.019,3.019,0,0,0,3.021,2.523A3.054,3.054,0,0,0,11.5,13.9a3.193,3.193,0,0,0,2-1.2,2.769,2.769,0,0,0,.4-2.2A2.976,2.976,0,0,0,11.4,8h-.8Zm5.9-1.5a1.026,1.026,0,0,1-1-1,.6.6,0,0,1,.1-.4c0-.1.107-.207.2-.3a.967.967,0,0,1,1.4,0c.1.1.2.2.2.3a.359.359,0,0,0,.037.131A.657.657,0,0,1,17.5,5.5a.905.905,0,0,1-.3.7A1.076,1.076,0,0,1,16.5,6.5Z" transform="translate(1 1)" fill="#fff"/>
  </g>
</svg>
