<svg id="twitter" xmlns="http://www.w3.org/2000/svg" xmlns:xlink="http://www.w3.org/1999/xlink" width="24" height="20" viewBox="0 0 24 20">
  <defs>
    <clipPath id="clip-path">
      <path id="icon_twitter" data-name="icon / twitter" d="M8.208,20A15.732,15.732,0,0,1,.525,17.888a1.02,1.02,0,0,1-.5-1.106,1.081,1.081,0,0,1,1-.7,11.415,11.415,0,0,0,4.89-1.005,9.63,9.63,0,0,1-4.79-8.045,12.6,12.6,0,0,1,1-5.431.866.866,0,0,1,.8-.6.961.961,0,0,1,.9.4A9.6,9.6,0,0,0,11,5.519,5.169,5.169,0,0,1,13,1.4,5.3,5.3,0,0,1,16.576,0a5.36,5.36,0,0,1,3.607,1.4,9.989,9.989,0,0,0,2.3-1.207,1.071,1.071,0,0,1,1.1,0,.956.956,0,0,1,.4,1.005,8.334,8.334,0,0,1-2,3.821v.5c0,5.6-2.437,10.18-6.685,12.57A13.645,13.645,0,0,1,8.208,20ZM3.418,4.111a8.283,8.283,0,0,0,4.99,10.056.941.941,0,0,1,.1,1.71,11.686,11.686,0,0,1-3.592,1.71,13.831,13.831,0,0,0,3.273.4,12.08,12.08,0,0,0,6.106-1.609c3.615-2.125,5.688-6.084,5.688-10.861a1.293,1.293,0,0,0-.1-.6,1.406,1.406,0,0,1,.3-.9c.1-.152.2-.28.3-.4s.2-.25.3-.4a1.431,1.431,0,0,1-.351.1,1.438,1.438,0,0,0-.348.1.752.752,0,0,1-.24.038,1.092,1.092,0,0,1-.758-.339,3.464,3.464,0,0,0-2.619-1.178,3.3,3.3,0,0,0-2.271.876A3.608,3.608,0,0,0,13,5.519V6.524A1.085,1.085,0,0,1,12,7.53c-.117,0-.235.005-.352.005A11.667,11.667,0,0,1,3.418,4.111Z" transform="translate(0 2)" fill="#222b45"/>
    </clipPath>
  </defs>
  <g id="Grupo_26" data-name="Grupo 26" transform="translate(0 -2)">
    <path id="icon_twitter-2" data-name="icon / twitter" d="M8.208,20A15.732,15.732,0,0,1,.525,17.888a1.02,1.02,0,0,1-.5-1.106,1.081,1.081,0,0,1,1-.7,11.415,11.415,0,0,0,4.89-1.005,9.63,9.63,0,0,1-4.79-8.045,12.6,12.6,0,0,1,1-5.431.866.866,0,0,1,.8-.6.961.961,0,0,1,.9.4A9.6,9.6,0,0,0,11,5.519,5.169,5.169,0,0,1,13,1.4,5.3,5.3,0,0,1,16.576,0a5.36,5.36,0,0,1,3.607,1.4,9.989,9.989,0,0,0,2.3-1.207,1.071,1.071,0,0,1,1.1,0,.956.956,0,0,1,.4,1.005,8.334,8.334,0,0,1-2,3.821v.5c0,5.6-2.437,10.18-6.685,12.57A13.645,13.645,0,0,1,8.208,20ZM3.418,4.111a8.283,8.283,0,0,0,4.99,10.056.941.941,0,0,1,.1,1.71,11.686,11.686,0,0,1-3.592,1.71,13.831,13.831,0,0,0,3.273.4,12.08,12.08,0,0,0,6.106-1.609c3.615-2.125,5.688-6.084,5.688-10.861a1.293,1.293,0,0,0-.1-.6,1.406,1.406,0,0,1,.3-.9c.1-.152.2-.28.3-.4s.2-.25.3-.4a1.431,1.431,0,0,1-.351.1,1.438,1.438,0,0,0-.348.1.752.752,0,0,1-.24.038,1.092,1.092,0,0,1-.758-.339,3.464,3.464,0,0,0-2.619-1.178,3.3,3.3,0,0,0-2.271.876A3.608,3.608,0,0,0,13,5.519V6.524A1.085,1.085,0,0,1,12,7.53c-.117,0-.235.005-.352.005A11.667,11.667,0,0,1,3.418,4.111Z" transform="translate(0 2)" fill="#fff"/>
  </g>
</svg>
