<svg id="logo-vino-wallet" xmlns="http://www.w3.org/2000/svg" xmlns:xlink="http://www.w3.org/1999/xlink" width="208" height="50.887" viewBox="0 0 208 50.887">
  <defs>
    <clipPath id="clip-path">
      <rect id="Retângulo_8" data-name="Retângulo 8" width="208" height="50.887" fill="none"/>
    </clipPath>
  </defs>
  <g id="Grupo_1" data-name="Grupo 1" clip-path="url(#clip-path)">
    <path id="Caminho_3" data-name="Caminho 3" d="M59.544.572V0H37.8V.572c8.61,0,9.9,9.547,7.749,14.855L38.155,33.656,27.033,8.9S23.087.572,28.041.572V0H4.14V.572l.151.011c1.915.131,3,.206,5.521,5.8,0,0,.481.9,7.177,15.508l.071-.081c.755-.77,1.509-1.55,2.248-2.335a9.113,9.113,0,0,0,.581-.7l.134-.173a.524.524,0,0,0,.1-.239c0-.035.008-.069.012-.1a7.056,7.056,0,0,0,.064-.817q.005-2.375,0-4.747,0-1.186,0-2.374c0-.013,0-.027,0-.041a.3.3,0,0,0,0-.09c-.01-.03-.03-.076-.056-.081a.326.326,0,0,1-.223-.37c0-.1,0-.2,0-.293,0-.291,0-.58-.005-.873,0-.223.025-.415.274-.465V7.977a.546.546,0,0,1,.557-.593h2.993a1.384,1.384,0,0,1,.248.025.473.473,0,0,1,.4.4,3.019,3.019,0,0,1,.025.3c.213.076.263.152.263.37,0,.135,0,.271,0,.406,0,.272,0,.544,0,.814.005.213-.046.37-.283.421v.192q0,1.254,0,2.508,0,2.511,0,5.024a1.422,1.422,0,0,0,.3.942c.279.34.577.664.881.983s.6.627.9.941c.374.389.749.779,1.12,1.172a2.751,2.751,0,0,1,.734,1.332c.03.154.052.31.074.466.01.076.021.152.032.228V46.976l.956,2.1.654,1.441h2.082L46.269,15.427C51.866,2.8,56.46.572,59.544.572M23.331,34.182l-16.273,4.8c1.874,4.938,5.2,6.812,8.848,6.574,2.943-.192,6.741-2.436,7.313-5.237l1.008.208c-.041,2.928-1.879,7.891-8.737,9.912C8.789,52.42,2.373,47.533.62,41.5c-2.112-7.278,1.291-13.938,8.352-16.02,7.42-2.188,12.024.654,14.359,8.7m-6.5.967c-1.889-6.5-5.049-9.547-7.86-8.717-3.019.892-3.606,6.721-2.168,11.675ZM43.6,47.883a2.636,2.636,0,1,1-2.639-2.634A2.637,2.637,0,0,1,43.6,47.883" transform="translate(0)" fill-rule="evenodd"/>
    <path id="Caminho_4" data-name="Caminho 4" d="M123.359,32.183c-2.015.256-2.514.45-4.18,3.119-2.109,3.365-6.706,10.889-9.741,16.087H108.1c-.745-5.663-1.858-13.055-2.42-16.5-.368-2.289-.686-2.471-2.668-2.705l.255-1.018h8.273l-.285,1.018-.717.1c-1.195.163-1.584.389-1.461,1.592.194,1.9,1.084,7.7,1.751,12.571,2.227-3.6,5.612-9.322,7.043-11.918.939-1.725.409-2.071-1.12-2.275l-.646-.072.265-1.018h7.215Z" transform="translate(-40.496 -12.252)"/>
    <path id="Caminho_5" data-name="Caminho 5" d="M140.3,48.032c-1.791,2.233-3.88,3.252-5.019,3.252-.936,0-1.413-.876-.89-3.128.55-2.3,1.308-5.162,1.811-7.365.183-.782.152-1.057-.092-1.057a4.434,4.434,0,0,0-1.8,1.14l-.438-.916c1.838-1.841,3.982-2.96,5.062-2.96.946,0,1.115.982.484,3.629-.5,2.006-1.2,4.8-1.69,6.8-.215.788-.215,1.185.019,1.185a4.56,4.56,0,0,0,2.067-1.483Zm.639-15.579a2.1,2.1,0,0,1-2.042,2.176,1.6,1.6,0,0,1-1.687-1.717,2.17,2.17,0,0,1,2.154-2.166,1.539,1.539,0,0,1,1.575,1.708" transform="translate(-52.627 -12.087)"/>
    <path id="Caminho_6" data-name="Caminho 6" d="M162.611,52.03c-1.823,2.324-3.891,3.3-4.959,3.3-.987,0-1.475-.695-.893-3.446.432-2,1.013-4.292,1.472-6.2.411-1.673.209-2.188-.338-2.188-.892,0-2.893,1.656-4.519,4.305a8.871,8.871,0,0,0-1.081,2.773c-.306,1.275-.665,2.81-.93,4.106a19.182,19.182,0,0,0-3.052.652l-.234-.254c.778-3.22,1.626-6.679,2.393-10.18.214-.93.132-1.206-.113-1.206a4.843,4.843,0,0,0-1.849,1.29l-.449-.916c1.768-2.056,3.481-3.02,4.552-3.02s1.452,1.132.789,4.017l-.31,1.29c2.07-2.9,4.967-5.307,7.084-5.307,1.111,0,2.121.626,1.16,4.731-.4,1.665-.961,4.025-1.341,5.7-.164.808-.164,1.155.07,1.155.316,0,1.084-.411,2.068-1.5Z" transform="translate(-58.205 -16.137)"/>
    <path id="Caminho_7" data-name="Caminho 7" d="M188.271,45.968a9.46,9.46,0,0,1-4.39,8.141,7.893,7.893,0,0,1-4.028,1.226c-3.409,0-4.464-2.608-4.464-4.939a9.176,9.176,0,0,1,5.391-8.66,8.392,8.392,0,0,1,3.1-.688c2.892,0,4.394,1.9,4.394,4.919M178.91,50.4c0,2.338.779,3.591,2.125,3.591,2.393,0,3.746-4.509,3.746-8.117,0-2.443-.864-3.5-2.1-3.5-2.826,0-3.775,5.463-3.775,8.022" transform="translate(-68.949 -16.137)"/>
    <path id="Caminho_8" data-name="Caminho 8" d="M239.8,32.183c-1.879.265-2.359.427-3.634,2.949-1.537,2.972-4.048,8.1-8.041,16.288H226.76L224.563,37,217.4,51.42h-1.349l-1.632-16.366c-.245-2.414-.4-2.676-2.583-2.871l.223-1.018h8.075l-.265,1.018-.663.112c-1.267.214-1.543.368-1.41,2.062l.922,11.534L225.89,31.4h1.268L229.313,46c1.982-3.892,4.135-8.585,5.282-11.266.843-1.97.506-2.286-1.236-2.469l-.586-.083.244-1.018h7.061Z" transform="translate(-83.277 -12.252)"/>
    <path id="Caminho_9" data-name="Caminho 9" d="M266.009,51.991c-1.6,2.1-3.721,3.345-4.877,3.345-.958,0-1.425-.824-.873-3.672l.29-1.437a16.6,16.6,0,0,1-3.439,3.738,5.039,5.039,0,0,1-3.056,1.371c-1.213,0-2.181-1.258-2.181-3.74a11.255,11.255,0,0,1,3.382-8.047,9.675,9.675,0,0,1,6.191-2.5,27.666,27.666,0,0,1,4.032.54c-.591,2.23-1.624,6.909-2.106,9.774-.132.8-.092,1.2.153,1.2.349,0,1.032-.439,2-1.433Zm-6.165-2.5a9.4,9.4,0,0,0,1.459-3.159c.287-1.224.623-2.626.734-3.421a5.306,5.306,0,0,0-2.089-.45c-3.1,0-4.584,4.936-4.544,8.442,0,1.226.337,1.843.831,1.843.77,0,1.959-.91,3.61-3.254" transform="translate(-99.017 -16.137)"/>
    <path id="Caminho_10" data-name="Caminho 10" d="M284.872,47.036c-1.791,2.233-3.914,3.275-5,3.275-.926,0-1.486-.632-.893-3.534.945-4.522,2.139-10.268,3.079-14.887.266-1.305.114-1.429-.99-1.54-.3-.011-.788-.092-.974-.092l.244-.916a25.464,25.464,0,0,0,4.3-.826,3.073,3.073,0,0,1,1.02-.245c.336,0,.356.316.2,1.041-1.259,5.6-2.781,12.989-3.632,17.15-.165.8-.154,1.114.091,1.114a4.377,4.377,0,0,0,2.038-1.444Z" transform="translate(-109.577 -11.114)"/>
    <path id="Caminho_11" data-name="Caminho 11" d="M298.755,47.036c-1.791,2.233-3.914,3.275-5,3.275-.926,0-1.486-.632-.893-3.534.945-4.522,2.139-10.268,3.079-14.887.266-1.305.114-1.429-.99-1.54-.3-.011-.788-.092-.974-.092l.244-.916a25.466,25.466,0,0,0,4.3-.826,3.072,3.072,0,0,1,1.02-.245c.336,0,.356.316.2,1.041-1.259,5.6-2.781,12.989-3.632,17.15-.165.8-.154,1.114.091,1.114a4.377,4.377,0,0,0,2.038-1.444Z" transform="translate(-115.034 -11.114)"/>
    <path id="Caminho_12" data-name="Caminho 12" d="M309.769,55.335c-1.731,0-3.722-.957-3.722-4.625a10.146,10.146,0,0,1,3.567-7.869,8.51,8.51,0,0,1,4.635-1.792c2.066,0,3.066,1.2,3.066,2.611,0,3.164-4.605,4.465-7.777,5.058-.031.308-.062.96-.062,1.207,0,1.658.49,3.175,2.231,3.175a6.67,6.67,0,0,0,4.515-2.421l.48.905c-2.344,2.781-4.884,3.752-6.933,3.752m-.109-7.729c3.626-.776,4.629-2.106,4.64-3.655,0-1.022-.554-1.5-1.355-1.5-.839,0-2.594.853-3.284,5.16" transform="translate(-120.314 -16.137)"/>
    <path id="Caminho_13" data-name="Caminho 13" d="M336.168,39.549c-.513.062-2.1.164-2.975.184-1.419,6.731-1.529,7.179-1.782,8.636-.193,1.07-.03,1.325.246,1.325a4.993,4.993,0,0,0,2.619-1.811l.458.885c-1.12,1.582-3.53,3.447-5.226,3.447-1.311,0-1.892-.986-1.135-4.4l1.738-8.08H327.7l-.04-.276.928-1.16h1.838l.685-3.218a22.664,22.664,0,0,0,3.237-1.964l.4.233c-.347,1.146-.9,3.357-1.235,4.95h3.3Z" transform="translate(-128.81 -13.018)"/>
  </g>
</svg>
